<svg xmlns="http://www.w3.org/2000/svg" width="14" height="18" viewBox="0 0 14 18" fill="none">
  <path d="M7 9C7.48125 9 7.89337 8.8239 8.23637 8.4717C8.57937 8.1195 8.75058 7.6956 8.75 7.2C8.74942 6.7044 8.57821 6.2808 8.23637 5.9292C7.89454 5.5776 7.48242 5.4012 7 5.4C6.51758 5.3988 6.10575 5.5752 5.7645 5.9292C5.42325 6.2832 5.25175 6.7068 5.25 7.2C5.24825 7.6932 5.41975 8.1171 5.7645 8.4717C6.10925 8.8263 6.52108 9.0024 7 9ZM7 15.615C8.77917 13.935 10.099 12.4089 10.9594 11.0367C11.8198 9.6645 12.25 8.4456 12.25 7.38C12.25 5.745 11.7434 4.4064 10.7301 3.3642C9.71687 2.322 8.4735 1.8006 7 1.8C5.5265 1.7994 4.28342 2.3208 3.27075 3.3642C2.25808 4.4076 1.75117 5.7462 1.75 7.38C1.75 8.445 2.18021 9.6639 3.04062 11.0367C3.90104 12.4095 5.22083 13.9356 7 15.615ZM7 18C4.65208 15.945 2.89858 14.0364 1.7395 12.2742C0.580417 10.512 0.000583333 8.8806 0 7.38C0 5.13 0.703792 3.3375 2.11137 2.0025C3.51896 0.6675 5.1485 0 7 0C8.8515 0 10.4813 0.6675 11.8895 2.0025C13.2977 3.3375 14.0012 5.13 14 7.38C14 8.88 13.4205 10.5114 12.2614 12.2742C11.1023 14.037 9.3485 15.9456 7 18Z" fill="#828099"/>
</svg>