<svg xmlns="http://www.w3.org/2000/svg" width="22" height="22" viewBox="0 0 22 22" fill="none">
  <path d="M3.57994 7.6073L1 7.4543C2.84896 2.70441 8.15784 0.000468483 13.3327 1.34444C18.8456 2.77741 22.1205 8.26228 20.6466 13.5942C19.4276 18.0051 15.3427 20.931 10.8468 21" stroke="#FDFDFD" stroke-linecap="round" stroke-linejoin="round"/>
  <path d="M10.9998 21C5.4999 21 1 16.0001 1 10.0002" stroke="#FDFDFD" stroke-linecap="round" stroke-linejoin="round" stroke-dasharray="0.25 1.5"/>
  <path d="M12.6047 8.72235C12.2527 8.35236 11.3917 7.48538 10.0298 8.10236C8.66878 8.71735 8.45279 10.6983 10.5117 10.9093C11.4417 11.0043 12.0487 10.7993 12.6047 11.3793C13.1607 11.9613 13.2637 13.5772 11.8437 14.0132C10.4237 14.4492 9.50276 13.7292 9.25577 13.5042M10.9087 7.02039V7.81037M10.9087 14.1472V15.0202" stroke="#FDFDFD" stroke-linecap="round" stroke-linejoin="round"/>
</svg>