<svg xmlns="http://www.w3.org/2000/svg" width="20" height="20" viewBox="0 0 20 20" fill="none">
  <mask id="path-1-inside-1_1068_1881" fill="white">
    <path d="M1.3937 0.500001C1.3937 0.223858 1.16985 0 0.893704 0H0.5C0.223858 0 0 0.223858 0 0.5V18.5714C0 18.9503 0.146836 19.3137 0.408206 19.5816C0.669577 19.8495 1.02407 20 1.3937 20H19.0119C19.288 20 19.5119 19.7761 19.5119 19.5V19.0714C19.5119 18.7953 19.288 18.5714 19.0119 18.5714H1.8937C1.61756 18.5714 1.3937 18.3476 1.3937 18.0714V0.500001Z"/>
  </mask>
  <path d="M1.3937 0.500001C1.3937 0.223858 1.16985 0 0.893704 0H0.5C0.223858 0 0 0.223858 0 0.5V18.5714C0 18.9503 0.146836 19.3137 0.408206 19.5816C0.669577 19.8495 1.02407 20 1.3937 20H19.0119C19.288 20 19.5119 19.7761 19.5119 19.5V19.0714C19.5119 18.7953 19.288 18.5714 19.0119 18.5714H1.8937C1.61756 18.5714 1.3937 18.3476 1.3937 18.0714V0.500001Z" fill="black"/>
  <path d="M0 18.5714H-2.5H0ZM0.893704 0V-2.5H0.5V0V2.5H0.893704V0ZM0 0.5H-2.5V18.5714H0H2.5V0.5H0ZM0 18.5714H-2.5C-2.5 19.5937 -2.1044 20.5861 -1.38126 21.3274L0.408206 19.5816L2.19768 17.8358C2.39807 18.0412 2.5 18.3069 2.5 18.5714H0ZM0.408206 19.5816L-1.38126 21.3274C-0.656081 22.0707 0.340815 22.5 1.3937 22.5V20V17.5C1.70733 17.5 1.99523 17.6283 2.19768 17.8358L0.408206 19.5816ZM1.3937 20V22.5H19.0119V20V17.5H1.3937V20ZM19.5119 19.5H22.0119V19.0714H19.5119H17.0119V19.5H19.5119ZM19.0119 18.5714V16.0714H1.8937V18.5714V21.0714H19.0119V18.5714ZM1.3937 18.0714H3.8937V0.500001H1.3937H-1.1063V18.0714H1.3937ZM1.8937 18.5714V16.0714C2.99828 16.0714 3.8937 16.9669 3.8937 18.0714H1.3937H-1.1063C-1.1063 19.7283 0.236844 21.0714 1.8937 21.0714V18.5714ZM19.5119 19.0714H22.0119C22.0119 17.4146 20.6687 16.0714 19.0119 16.0714V18.5714V21.0714C17.9073 21.0714 17.0119 20.176 17.0119 19.0714H19.5119ZM0.5 0V-2.5C-1.15685 -2.5 -2.5 -1.15685 -2.5 0.5H0H2.5C2.5 1.60457 1.60457 2.5 0.5 2.5V0ZM19.0119 20V22.5C20.6687 22.5 22.0119 21.1569 22.0119 19.5H19.5119H17.0119C17.0119 18.3954 17.9073 17.5 19.0119 17.5V20ZM0.893704 0V2.5C-0.210871 2.5 -1.1063 1.60456 -1.1063 0.500001H1.3937H3.8937C3.8937 -1.15685 2.55056 -2.5 0.893704 -2.5V0Z" fill="#FDFDFD" mask="url(#path-1-inside-1_1068_1881)"/>
  <path d="M19.5 5.25V9.5H19.0371V8.04492C19.0369 7.3723 18.2702 7.0186 17.7617 7.40039L17.6641 7.4873L12.1133 13.1836L12.1113 13.1846C12.0892 13.2074 12.0635 13.2256 12.0361 13.2373C12.0089 13.2488 11.9798 13.2539 11.9512 13.2539C11.9224 13.2539 11.8934 13.2489 11.8662 13.2373C11.8389 13.2256 11.8131 13.2074 11.791 13.1846L11.79 13.1836L8.86621 10.1797L8.80469 10.123C8.50916 9.87612 8.07707 9.87549 7.78125 10.1221L7.71973 10.1787L3.4707 14.5332L3.1377 14.1914L8.13184 9.06641L8.13281 9.06543C8.15495 9.04255 8.18065 9.02438 8.20801 9.0127C8.23527 9.00108 8.26421 8.9961 8.29297 8.99609C8.32171 8.99609 8.35067 9.0011 8.37793 9.0127C8.40529 9.02438 8.43099 9.04255 8.45312 9.06543L8.4541 9.06641L11.3789 12.0703C11.6927 12.3927 12.2102 12.3933 12.5244 12.0713L17.3662 7.1084C17.8602 6.60161 17.5008 5.75 16.793 5.75H15.3779V5.25H19.5Z" fill="#FDFDFD" stroke="#FDFDFD" stroke-linejoin="round"/>
</svg>