<svg xmlns="http://www.w3.org/2000/svg" width="10" height="12" viewBox="0 0 10 12" fill="none">
  <mask id="path-1-inside-1_1068_1895" fill="white">
    <path d="M4.0222 10.2857C4.0222 10.049 4.21408 9.85714 4.45077 9.85714H9.57143C9.80812 9.85714 10 10.049 10 10.2857C10 10.5224 9.80812 10.7143 9.57143 10.7143H4.45077C4.21408 10.7143 4.0222 10.5224 4.0222 10.2857ZM0.754301 9.93282C0.94869 10.1279 0.94869 10.4435 0.754301 10.6386L0.30418 11.0904C0.138194 11.257 0.137718 11.5263 0.303115 11.6935C0.470214 11.8624 0.74291 11.8629 0.910605 11.6946L1.96267 10.6386C2.15706 10.4435 2.15706 10.1279 1.96267 9.93282L0.908462 8.87469C0.741602 8.70721 0.470558 8.70673 0.303107 8.87362C0.135697 9.04047 0.135218 9.31143 0.302038 9.47887L0.754301 9.93282ZM4.0222 6C4.0222 5.76331 4.21408 5.57143 4.45077 5.57143H9.57143C9.80812 5.57143 10 5.76331 10 6C10 6.23669 9.80812 6.42857 9.57143 6.42857H4.45077C4.21408 6.42857 4.0222 6.23669 4.0222 6ZM0.754301 5.6471C0.94869 5.84221 0.94869 6.15779 0.754301 6.3529L0.304181 6.80469C0.138194 6.97129 0.137719 7.24061 0.303115 7.4078C0.470214 7.5767 0.74291 7.57719 0.910605 7.40887L1.96267 6.3529C2.15706 6.15779 2.15706 5.84221 1.96267 5.6471L0.908462 4.58898C0.741602 4.4215 0.470558 4.42102 0.303107 4.58791C0.135697 4.75476 0.135218 5.02572 0.302038 5.19316L0.754301 5.6471ZM4.0222 1.71429C4.0222 1.47759 4.21408 1.28571 4.45077 1.28571H9.57143C9.80812 1.28571 10 1.47759 10 1.71429C10 1.95098 9.80812 2.14286 9.57143 2.14286H4.45077C4.21408 2.14286 4.0222 1.95098 4.0222 1.71429ZM0.754301 1.36139C0.94869 1.5565 0.94869 1.87207 0.754301 2.06718L0.304181 2.51898C0.138194 2.68558 0.137719 2.95489 0.303115 3.12208C0.470214 3.29099 0.74291 3.29147 0.910605 3.12316L1.96267 2.06718C2.15706 1.87207 2.15706 1.5565 1.96267 1.36139L0.908462 0.303265C0.741602 0.135785 0.470558 0.135306 0.303107 0.302195C0.135697 0.469044 0.135218 0.740006 0.302038 0.907445L0.754301 1.36139Z"/>
  </mask>
  <path d="M4.0222 10.2857C4.0222 10.049 4.21408 9.85714 4.45077 9.85714H9.57143C9.80812 9.85714 10 10.049 10 10.2857C10 10.5224 9.80812 10.7143 9.57143 10.7143H4.45077C4.21408 10.7143 4.0222 10.5224 4.0222 10.2857ZM0.754301 9.93282C0.94869 10.1279 0.94869 10.4435 0.754301 10.6386L0.30418 11.0904C0.138194 11.257 0.137718 11.5263 0.303115 11.6935C0.470214 11.8624 0.74291 11.8629 0.910605 11.6946L1.96267 10.6386C2.15706 10.4435 2.15706 10.1279 1.96267 9.93282L0.908462 8.87469C0.741602 8.70721 0.470558 8.70673 0.303107 8.87362C0.135697 9.04047 0.135218 9.31143 0.302038 9.47887L0.754301 9.93282ZM4.0222 6C4.0222 5.76331 4.21408 5.57143 4.45077 5.57143H9.57143C9.80812 5.57143 10 5.76331 10 6C10 6.23669 9.80812 6.42857 9.57143 6.42857H4.45077C4.21408 6.42857 4.0222 6.23669 4.0222 6ZM0.754301 5.6471C0.94869 5.84221 0.94869 6.15779 0.754301 6.3529L0.304181 6.80469C0.138194 6.97129 0.137719 7.24061 0.303115 7.4078C0.470214 7.5767 0.74291 7.57719 0.910605 7.40887L1.96267 6.3529C2.15706 6.15779 2.15706 5.84221 1.96267 5.6471L0.908462 4.58898C0.741602 4.4215 0.470558 4.42102 0.303107 4.58791C0.135697 4.75476 0.135218 5.02572 0.302038 5.19316L0.754301 5.6471ZM4.0222 1.71429C4.0222 1.47759 4.21408 1.28571 4.45077 1.28571H9.57143C9.80812 1.28571 10 1.47759 10 1.71429C10 1.95098 9.80812 2.14286 9.57143 2.14286H4.45077C4.21408 2.14286 4.0222 1.95098 4.0222 1.71429ZM0.754301 1.36139C0.94869 1.5565 0.94869 1.87207 0.754301 2.06718L0.304181 2.51898C0.138194 2.68558 0.137719 2.95489 0.303115 3.12208C0.470214 3.29099 0.74291 3.29147 0.910605 3.12316L1.96267 2.06718C2.15706 1.87207 2.15706 1.5565 1.96267 1.36139L0.908462 0.303265C0.741602 0.135785 0.470558 0.135306 0.303107 0.302195C0.135697 0.469044 0.135218 0.740006 0.302038 0.907445L0.754301 1.36139Z" fill="#FDFDFD"/>
  <path d="M0.302038 0.907445L-1.82321 3.02483L0.302038 0.907445ZM1.96267 2.06718L-0.162579 -0.0502014L1.96267 2.06718ZM1.96267 1.36139L-0.162579 3.47877L1.96267 1.36139ZM0.754301 2.06718L-1.37095 -0.0502015L0.754301 2.06718ZM0.754301 1.36139L-1.37095 3.47877L0.754301 1.36139ZM0.302038 5.19316L-1.82321 7.31054L0.302038 5.19316ZM0.908462 4.58898L-1.21679 6.70636L0.908462 4.58898ZM1.96267 6.3529L-0.162579 4.23551L1.96267 6.3529ZM1.96267 5.6471L-0.162579 7.76449L1.96267 5.6471ZM0.910605 7.40887L-1.21464 5.29148L0.910605 7.40887ZM0.304181 6.80469L-1.82107 4.6873L0.304181 6.80469ZM0.754301 6.3529L-1.37095 4.23551L0.754301 6.3529ZM0.754301 5.6471L-1.37095 7.76449L0.754301 5.6471ZM0.302038 9.47887L-1.82321 11.5963L0.302038 9.47887ZM0.908462 8.87469L-1.21679 10.9921L0.908462 8.87469ZM1.96267 10.6386L-0.16258 8.52123L1.96267 10.6386ZM1.96267 9.93282L-0.162579 12.0502L1.96267 9.93282ZM0.910605 11.6946L-1.21464 9.5772L0.910605 11.6946ZM0.754301 10.6386L-1.37095 8.52123L0.754301 10.6386ZM0.754301 9.93282L-1.37095 12.0502L0.754301 9.93282ZM4.45077 9.85714V12.8571H9.57143V9.85714V6.85714H4.45077V9.85714ZM9.57143 10.7143V7.71428H4.45077V10.7143V13.7143H9.57143V10.7143ZM0.754301 10.6386L-1.37095 8.52123L-1.82107 8.97302L0.30418 11.0904L2.42943 13.2078L2.87955 12.756L0.754301 10.6386ZM0.910605 11.6946L3.03585 13.812L4.08792 12.756L1.96267 10.6386L-0.16258 8.52123L-1.21464 9.5772L0.910605 11.6946ZM1.96267 9.93282L4.08792 7.81543L3.03371 6.75731L0.908462 8.87469L-1.21679 10.9921L-0.162579 12.0502L1.96267 9.93282ZM0.302038 9.47887L-1.82321 11.5963L-1.37095 12.0502L0.754301 9.93282L2.87955 7.81543L2.42729 7.36149L0.302038 9.47887ZM4.45077 5.57143V8.57143H9.57143V5.57143V2.57143H4.45077V5.57143ZM9.57143 6.42857V3.42857H4.45077V6.42857V9.42857H9.57143V6.42857ZM0.754301 6.3529L-1.37095 4.23551L-1.82107 4.6873L0.304181 6.80469L2.42943 8.92207L2.87955 8.47028L0.754301 6.3529ZM0.910605 7.40887L3.03585 9.52625L4.08792 8.47028L1.96267 6.3529L-0.162579 4.23551L-1.21464 5.29148L0.910605 7.40887ZM1.96267 5.6471L4.08792 3.52972L3.03371 2.47159L0.908462 4.58898L-1.21679 6.70636L-0.162579 7.76449L1.96267 5.6471ZM0.302038 5.19316L-1.82321 7.31054L-1.37095 7.76449L0.754301 5.6471L2.87955 3.52972L2.42729 3.07577L0.302038 5.19316ZM4.45077 1.28571V4.28571H9.57143V1.28571V-1.71429H4.45077V1.28571ZM9.57143 2.14286V-0.857143H4.45077V2.14286V5.14286H9.57143V2.14286ZM0.754301 2.06718L-1.37095 -0.0502015L-1.82107 0.401591L0.304181 2.51898L2.42943 4.63636L2.87955 4.18457L0.754301 2.06718ZM0.910605 3.12316L3.03585 5.24054L4.08792 4.18457L1.96267 2.06718L-0.162579 -0.0502014L-1.21464 1.00577L0.910605 3.12316ZM1.96267 1.36139L4.08792 -0.755996L3.03371 -1.81412L0.908462 0.303265L-1.21679 2.42065L-0.162579 3.47877L1.96267 1.36139ZM0.302038 0.907445L-1.82321 3.02483L-1.37095 3.47877L0.754301 1.36139L2.87955 -0.755996L2.42729 -1.20994L0.302038 0.907445ZM0.303107 0.302195L-1.81465 -1.82269C-3.15545 -0.486379 -3.15929 1.68379 -1.82321 3.02483L0.302038 0.907445L2.42729 -1.20994C3.42972 -0.203779 3.42685 1.42447 2.42086 2.42708L0.303107 0.302195ZM0.908462 0.303265L3.03371 -1.81412C1.69731 -3.15549 -0.473511 -3.15932 -1.81465 -1.82269L0.303107 0.302195L2.42086 2.42708C1.41463 3.42993 -0.214105 3.42706 -1.21679 2.42065L0.908462 0.303265ZM1.96267 2.06718L4.08792 4.18457C5.44864 2.81879 5.44864 0.609783 4.08792 -0.755996L1.96267 1.36139L-0.162579 3.47877C-1.13453 2.50322 -1.13452 0.925353 -0.162579 -0.0502014L1.96267 2.06718ZM0.303115 3.12208L-1.8296 5.23194C-0.491289 6.58475 1.69277 6.58861 3.03585 5.24054L0.910605 3.12316L-1.21464 1.00577C-0.206947 -0.00566864 1.43172 -0.00277267 2.43583 1.01222L0.303115 3.12208ZM0.304181 2.51898L-1.82107 0.401591C-3.15047 1.73593 -3.15428 3.89291 -1.8296 5.23194L0.303115 3.12208L2.43583 1.01222C3.42972 2.01687 3.42686 3.63522 2.42943 4.63636L0.304181 2.51898ZM0.754301 2.06718L2.87955 4.18457C4.24027 2.81879 4.24027 0.609782 2.87955 -0.755996L0.754301 1.36139L-1.37095 3.47877C-2.34289 2.50322 -2.34289 0.925354 -1.37095 -0.0502015L0.754301 2.06718ZM4.45077 2.14286V-0.857143C5.87093 -0.857143 7.0222 0.294124 7.0222 1.71429H4.0222H1.0222C1.0222 3.60783 2.55723 5.14286 4.45077 5.14286V2.14286ZM10 1.71429H7C7 0.294124 8.15127 -0.857143 9.57143 -0.857143V2.14286V5.14286C11.465 5.14286 13 3.60783 13 1.71429H10ZM9.57143 1.28571V4.28571C8.15127 4.28571 7 3.13445 7 1.71429H10H13C13 -0.179263 11.465 -1.71429 9.57143 -1.71429V1.28571ZM4.45077 1.28571V-1.71429C2.55723 -1.71429 1.0222 -0.179264 1.0222 1.71429H4.0222H7.0222C7.0222 3.13445 5.87093 4.28571 4.45077 4.28571V1.28571ZM0.303107 4.58791L-1.81465 2.46303C-3.15545 3.79934 -3.15929 5.96951 -1.82321 7.31054L0.302038 5.19316L2.42729 3.07577C3.42972 4.08194 3.42684 5.71018 2.42086 6.71279L0.303107 4.58791ZM0.908462 4.58898L3.03371 2.47159C1.69731 1.13023 -0.473513 1.12639 -1.81465 2.46303L0.303107 4.58791L2.42086 6.71279C1.41463 7.71565 -0.214104 7.71277 -1.21679 6.70636L0.908462 4.58898ZM1.96267 6.3529L4.08792 8.47028C5.44864 7.1045 5.44864 4.8955 4.08792 3.52972L1.96267 5.6471L-0.162579 7.76449C-1.13453 6.78893 -1.13452 5.21107 -0.162579 4.23551L1.96267 6.3529ZM0.303115 7.4078L-1.8296 9.51766C-0.491289 10.8705 1.69277 10.8743 3.03585 9.52625L0.910605 7.40887L-1.21464 5.29148C-0.206947 4.28005 1.43172 4.28294 2.43583 5.29793L0.303115 7.4078ZM0.304181 6.80469L-1.82107 4.6873C-3.15047 6.02165 -3.15428 8.17863 -1.8296 9.51766L0.303115 7.4078L2.43583 5.29793C3.42972 6.30259 3.42686 7.92094 2.42943 8.92207L0.304181 6.80469ZM0.754301 6.3529L2.87955 8.47028C4.24027 7.10451 4.24027 4.8955 2.87955 3.52972L0.754301 5.6471L-1.37095 7.76449C-2.34289 6.78893 -2.34289 5.21107 -1.37095 4.23551L0.754301 6.3529ZM4.45077 6.42857V3.42857C5.87093 3.42857 7.0222 4.57984 7.0222 6H4.0222H1.0222C1.0222 7.89355 2.55723 9.42857 4.45077 9.42857V6.42857ZM10 6H7C7 4.57984 8.15127 3.42857 9.57143 3.42857V6.42857V9.42857C11.465 9.42857 13 7.89355 13 6H10ZM9.57143 5.57143V8.57143C8.15127 8.57143 7 7.42016 7 6H10H13C13 4.10645 11.465 2.57143 9.57143 2.57143V5.57143ZM4.45077 5.57143V2.57143C2.55723 2.57143 1.0222 4.10645 1.0222 6H4.0222H7.0222C7.0222 7.42016 5.87093 8.57143 4.45077 8.57143V5.57143ZM0.303107 8.87362L-1.81465 6.74874C-3.15545 8.08505 -3.15929 10.2552 -1.82321 11.5963L0.302038 9.47887L2.42729 7.36149C3.42972 8.36765 3.42685 9.9959 2.42086 10.9985L0.303107 8.87362ZM0.908462 8.87469L3.03371 6.75731C1.69731 5.41594 -0.473512 5.41211 -1.81465 6.74874L0.303107 8.87362L2.42086 10.9985C1.41463 12.0014 -0.214103 11.9985 -1.21679 10.9921L0.908462 8.87469ZM1.96267 10.6386L4.08792 12.756C5.44864 11.3902 5.44864 9.18121 4.08792 7.81543L1.96267 9.93282L-0.162579 12.0502C-1.13453 11.0746 -1.13452 9.49678 -0.16258 8.52123L1.96267 10.6386ZM0.303115 11.6935L-1.8296 13.8034C-0.49129 15.1562 1.69277 15.16 3.03585 13.812L0.910605 11.6946L-1.21464 9.5772C-0.206947 8.56576 1.43172 8.56866 2.43583 9.58365L0.303115 11.6935ZM0.30418 11.0904L-1.82107 8.97302C-3.15047 10.3074 -3.15428 12.4643 -1.8296 13.8034L0.303115 11.6935L2.43583 9.58365C3.42972 10.5883 3.42686 12.2067 2.42943 13.2078L0.30418 11.0904ZM0.754301 10.6386L2.87955 12.756C4.24027 11.3902 4.24027 9.18121 2.87955 7.81543L0.754301 9.93282L-1.37095 12.0502C-2.34289 11.0746 -2.34289 9.49678 -1.37095 8.52123L0.754301 10.6386ZM4.45077 10.7143V7.71428C5.87093 7.71428 7.0222 8.86555 7.0222 10.2857H4.0222H1.0222C1.0222 12.1793 2.55723 13.7143 4.45077 13.7143V10.7143ZM10 10.2857H7C7 8.86555 8.15127 7.71428 9.57143 7.71428V10.7143V13.7143C11.465 13.7143 13 12.1793 13 10.2857H10ZM9.57143 9.85714V12.8571C8.15127 12.8571 7 11.7059 7 10.2857H10H13C13 8.39217 11.465 6.85714 9.57143 6.85714V9.85714ZM4.45077 9.85714V6.85714C2.55723 6.85714 1.0222 8.39216 1.0222 10.2857H4.0222H7.0222C7.0222 11.7059 5.87093 12.8571 4.45077 12.8571V9.85714Z" fill="#FDFDFD" mask="url(#path-1-inside-1_1068_1895)"/>
</svg>