<svg xmlns="http://www.w3.org/2000/svg" width="28" height="28" viewBox="0 0 28 28" fill="none">
  <g filter="url(#filter0_d_1139_1646)">
    <path d="M4 0.5C4 0.223858 4.22386 0 4.5 0H11.7353C12.0114 0 12.2353 0.223858 12.2353 0.5V7.73529C12.2353 8.01144 12.0114 8.23529 11.7353 8.23529H4.5C4.22386 8.23529 4 8.01144 4 7.73529V0.5ZM15.7647 0.5C15.7647 0.223858 15.9886 0 16.2647 0H23.5C23.7761 0 24 0.223858 24 0.5V7.73529C24 8.01144 23.7761 8.23529 23.5 8.23529H16.2647C15.9886 8.23529 15.7647 8.01144 15.7647 7.73529V0.5ZM4 12.2647C4 11.9886 4.22386 11.7647 4.5 11.7647H11.7353C12.0114 11.7647 12.2353 11.9886 12.2353 12.2647V19.5C12.2353 19.7761 12.0114 20 11.7353 20H4.5C4.22386 20 4 19.7761 4 19.5V12.2647ZM19.2941 12.2647C19.2941 11.9886 19.518 11.7647 19.7941 11.7647H19.9706C20.2467 11.7647 20.4706 11.9886 20.4706 12.2647V14.7941C20.4706 15.0703 20.6944 15.2941 20.9706 15.2941H23.5C23.7761 15.2941 24 15.518 24 15.7941V15.9706C24 16.2467 23.7761 16.4706 23.5 16.4706H20.9706C20.6944 16.4706 20.4706 16.6944 20.4706 16.9706V19.5C20.4706 19.7761 20.2467 20 19.9706 20H19.7941C19.518 20 19.2941 19.7761 19.2941 19.5V16.9706C19.2941 16.6944 19.0703 16.4706 18.7941 16.4706H16.2647C15.9886 16.4706 15.7647 16.2467 15.7647 15.9706V15.7941C15.7647 15.518 15.9886 15.2941 16.2647 15.2941H18.7941C19.0703 15.2941 19.2941 15.0703 19.2941 14.7941V12.2647ZM17.4412 1.17647C17.165 1.17647 16.9412 1.40033 16.9412 1.67647V6.55882C16.9412 6.83497 17.165 7.05882 17.4412 7.05882H22.3235C22.5997 7.05882 22.8235 6.83497 22.8235 6.55882V1.67647C22.8235 1.40033 22.5997 1.17647 22.3235 1.17647H17.4412ZM5.67647 1.17647C5.40033 1.17647 5.17647 1.40033 5.17647 1.67647V6.55882C5.17647 6.83497 5.40033 7.05882 5.67647 7.05882H10.5588C10.835 7.05882 11.0588 6.83497 11.0588 6.55882V1.67647C11.0588 1.40033 10.835 1.17647 10.5588 1.17647H5.67647ZM5.67647 12.9412C5.40033 12.9412 5.17647 13.165 5.17647 13.4412V18.3235C5.17647 18.5997 5.40033 18.8235 5.67647 18.8235H10.5588C10.835 18.8235 11.0588 18.5997 11.0588 18.3235V13.4412C11.0588 13.165 10.835 12.9412 10.5588 12.9412H5.67647Z" fill="black"/>
    <path d="M11.7354 12.2646V19.5H4.5V12.2646H11.7354ZM19.9707 12.2646V14.7939C19.9707 15.3462 20.4184 15.7939 20.9707 15.7939H23.5V15.9707H20.9707C20.4184 15.9707 19.9707 16.4184 19.9707 16.9707V19.5H19.7939V16.9707C19.7939 16.4184 19.3462 15.9707 18.7939 15.9707H16.2646V15.7939H18.7939C19.3462 15.7939 19.7939 15.3462 19.7939 14.7939V12.2646H19.9707ZM5.67676 12.4414C5.12447 12.4414 4.67676 12.8891 4.67676 13.4414V18.3232C4.67676 18.8755 5.12447 19.3232 5.67676 19.3232H10.5586C11.1109 19.3232 11.5586 18.8755 11.5586 18.3232V13.4414C11.5586 12.8891 11.1109 12.4414 10.5586 12.4414H5.67676ZM11.7354 0.5V7.73535H4.5V0.5H11.7354ZM23.5 0.5V7.73535H16.2646V0.5H23.5ZM5.67676 0.676758C5.12447 0.676758 4.67676 1.12447 4.67676 1.67676V6.55859C4.67676 7.11088 5.12447 7.55859 5.67676 7.55859H10.5586C11.1109 7.55859 11.5586 7.11088 11.5586 6.55859V1.67676C11.5586 1.12447 11.1109 0.676758 10.5586 0.676758H5.67676ZM17.4414 0.676758C16.8891 0.676758 16.4414 1.12447 16.4414 1.67676V6.55859C16.4414 7.11088 16.8891 7.55859 17.4414 7.55859H22.3232C22.8755 7.55859 23.3232 7.11088 23.3232 6.55859V1.67676C23.3232 1.12447 22.8755 0.676758 22.3232 0.676758H17.4414Z" stroke="#DF5AF9"/>
  </g>
  <defs>
    <filter id="filter0_d_1139_1646" x="0" y="0" width="28" height="28" filterUnits="userSpaceOnUse" color-interpolation-filters="sRGB">
      <feFlood flood-opacity="0" result="BackgroundImageFix"/>
      <feColorMatrix in="SourceAlpha" type="matrix" values="0 0 0 0 0 0 0 0 0 0 0 0 0 0 0 0 0 0 127 0" result="hardAlpha"/>
      <feOffset dy="4"/>
      <feGaussianBlur stdDeviation="2"/>
      <feComposite in2="hardAlpha" operator="out"/>
      <feColorMatrix type="matrix" values="0 0 0 0 0 0 0 0 0 0 0 0 0 0 0 0 0 0 0.25 0"/>
      <feBlend mode="normal" in2="BackgroundImageFix" result="effect1_dropShadow_1139_1646"/>
      <feBlend mode="normal" in="SourceGraphic" in2="effect1_dropShadow_1139_1646" result="shape"/>
    </filter>
  </defs>
</svg>