<svg xmlns="http://www.w3.org/2000/svg" width="20" height="20" viewBox="0 0 20 20" fill="none">
  <mask id="path-1-inside-1_1068_1906" fill="white">
    <path d="M10.0311 15.8111C10.277 15.8111 10.4844 15.7267 10.6533 15.5578C10.8222 15.3889 10.9067 15.1815 10.9067 14.9356C10.9067 14.6896 10.8215 14.4822 10.6511 14.3133C10.4822 14.1444 10.2748 14.06 10.0289 14.06C9.78296 14.06 9.57556 14.1448 9.40667 14.3144C9.23778 14.4841 9.1537 14.6915 9.15445 14.9367C9.15445 15.1826 9.23889 15.39 9.40778 15.5589C9.57815 15.7278 9.78593 15.8122 10.0311 15.8122M9.45667 12.1322H10.53C10.5581 11.6493 10.6489 11.2567 10.8022 10.9544C10.9556 10.653 11.2707 10.2678 11.7478 9.79889C12.2441 9.30333 12.613 8.85926 12.8544 8.46667C13.0959 8.07407 13.217 7.62 13.2178 7.10444C13.2178 6.22889 12.9104 5.53111 12.2956 5.01111C11.68 4.49111 10.9519 4.23111 10.1111 4.23111C9.31185 4.23111 8.63333 4.44815 8.07556 4.88222C7.51778 5.31704 7.10926 5.8163 6.85 6.38L7.87222 6.80333C8.05 6.39889 8.30445 6.04148 8.63556 5.73111C8.96667 5.42 9.44445 5.26444 10.0689 5.26444C10.7889 5.26444 11.3148 5.46222 11.6467 5.85778C11.9793 6.25333 12.1456 6.68815 12.1456 7.16222C12.1456 7.54741 12.0415 7.89111 11.8333 8.19333C11.6259 8.4963 11.3556 8.80074 11.0222 9.10667C10.3778 9.70074 9.95556 10.2044 9.75556 10.6178C9.55556 11.0311 9.45593 11.5359 9.45667 12.1322ZM10.0033 20C8.62111 20 7.32111 19.7378 6.10333 19.2133C4.8863 18.6881 3.82741 17.9756 2.92667 17.0756C2.02593 16.1756 1.31296 15.1178 0.787778 13.9022C0.262593 12.6867 0 11.387 0 10.0033C0 8.61963 0.262593 7.31963 0.787778 6.10333C1.31222 4.8863 2.0237 3.82741 2.92222 2.92667C3.82074 2.02593 4.87889 1.31296 6.09667 0.787778C7.31445 0.262593 8.61444 0 9.99667 0C11.3789 0 12.6789 0.262593 13.8967 0.787778C15.1137 1.31222 16.1726 2.02407 17.0733 2.92333C17.9741 3.82259 18.687 4.88074 19.2122 6.09778C19.7374 7.31481 20 8.61444 20 9.99667C20 11.3789 19.7378 12.6789 19.2133 13.8967C18.6889 15.1144 17.9763 16.1733 17.0756 17.0733C16.1748 17.9733 15.117 18.6863 13.9022 19.2122C12.6874 19.7381 11.3878 20.0007 10.0033 20ZM10 18.8889C12.4815 18.8889 14.5833 18.0278 16.3056 16.3056C18.0278 14.5833 18.8889 12.4815 18.8889 10C18.8889 7.51852 18.0278 5.41667 16.3056 3.69444C14.5833 1.97222 12.4815 1.11111 10 1.11111C7.51852 1.11111 5.41667 1.97222 3.69444 3.69444C1.97222 5.41667 1.11111 7.51852 1.11111 10C1.11111 12.4815 1.97222 14.5833 3.69444 16.3056C5.41667 18.0278 7.51852 18.8889 10 18.8889Z"/>
  </mask>
  <path d="M10.0311 15.8111C10.277 15.8111 10.4844 15.7267 10.6533 15.5578C10.8222 15.3889 10.9067 15.1815 10.9067 14.9356C10.9067 14.6896 10.8215 14.4822 10.6511 14.3133C10.4822 14.1444 10.2748 14.06 10.0289 14.06C9.78296 14.06 9.57556 14.1448 9.40667 14.3144C9.23778 14.4841 9.1537 14.6915 9.15445 14.9367C9.15445 15.1826 9.23889 15.39 9.40778 15.5589C9.57815 15.7278 9.78593 15.8122 10.0311 15.8122M9.45667 12.1322H10.53C10.5581 11.6493 10.6489 11.2567 10.8022 10.9544C10.9556 10.653 11.2707 10.2678 11.7478 9.79889C12.2441 9.30333 12.613 8.85926 12.8544 8.46667C13.0959 8.07407 13.217 7.62 13.2178 7.10444C13.2178 6.22889 12.9104 5.53111 12.2956 5.01111C11.68 4.49111 10.9519 4.23111 10.1111 4.23111C9.31185 4.23111 8.63333 4.44815 8.07556 4.88222C7.51778 5.31704 7.10926 5.8163 6.85 6.38L7.87222 6.80333C8.05 6.39889 8.30445 6.04148 8.63556 5.73111C8.96667 5.42 9.44445 5.26444 10.0689 5.26444C10.7889 5.26444 11.3148 5.46222 11.6467 5.85778C11.9793 6.25333 12.1456 6.68815 12.1456 7.16222C12.1456 7.54741 12.0415 7.89111 11.8333 8.19333C11.6259 8.4963 11.3556 8.80074 11.0222 9.10667C10.3778 9.70074 9.95556 10.2044 9.75556 10.6178C9.55556 11.0311 9.45593 11.5359 9.45667 12.1322ZM10.0033 20C8.62111 20 7.32111 19.7378 6.10333 19.2133C4.8863 18.6881 3.82741 17.9756 2.92667 17.0756C2.02593 16.1756 1.31296 15.1178 0.787778 13.9022C0.262593 12.6867 0 11.387 0 10.0033C0 8.61963 0.262593 7.31963 0.787778 6.10333C1.31222 4.8863 2.0237 3.82741 2.92222 2.92667C3.82074 2.02593 4.87889 1.31296 6.09667 0.787778C7.31445 0.262593 8.61444 0 9.99667 0C11.3789 0 12.6789 0.262593 13.8967 0.787778C15.1137 1.31222 16.1726 2.02407 17.0733 2.92333C17.9741 3.82259 18.687 4.88074 19.2122 6.09778C19.7374 7.31481 20 8.61444 20 9.99667C20 11.3789 19.7378 12.6789 19.2133 13.8967C18.6889 15.1144 17.9763 16.1733 17.0756 17.0733C16.1748 17.9733 15.117 18.6863 13.9022 19.2122C12.6874 19.7381 11.3878 20.0007 10.0033 20ZM10 18.8889C12.4815 18.8889 14.5833 18.0278 16.3056 16.3056C18.0278 14.5833 18.8889 12.4815 18.8889 10C18.8889 7.51852 18.0278 5.41667 16.3056 3.69444C14.5833 1.97222 12.4815 1.11111 10 1.11111C7.51852 1.11111 5.41667 1.97222 3.69444 3.69444C1.97222 5.41667 1.11111 7.51852 1.11111 10C1.11111 12.4815 1.97222 14.5833 3.69444 16.3056C5.41667 18.0278 7.51852 18.8889 10 18.8889Z" fill="#FDFDFD"/>
  <path d="M10.6511 14.3133L9.80258 15.1619L9.8063 15.1656L10.6511 14.3133ZM9.15445 14.9367H10.3545L10.3544 14.933L9.15445 14.9367ZM9.40778 15.5589L8.55924 16.4074L8.56296 16.4111L9.40778 15.5589ZM9.45667 12.1322L8.25667 12.1337L8.25816 13.3322H9.45667V12.1322ZM10.53 12.1322V13.3322H11.6621L11.728 12.202L10.53 12.1322ZM10.8022 10.9544L9.73261 10.4104L9.73208 10.4115L10.8022 10.9544ZM11.7478 9.79889L12.589 10.6547L12.5957 10.6481L11.7478 9.79889ZM13.2178 7.10444L14.4178 7.10617V7.10444H13.2178ZM12.2956 5.01111L13.0705 4.09488L13.0699 4.09442L12.2956 5.01111ZM8.07556 4.88222L7.33857 3.9352L7.33778 3.93581L8.07556 4.88222ZM6.85 6.38L5.75978 5.87858L5.23871 7.01154L6.39086 7.48869L6.85 6.38ZM7.87222 6.80333L7.41308 7.91202L8.49817 8.36139L8.97078 7.28622L7.87222 6.80333ZM8.63556 5.73111L9.45622 6.60662L9.45726 6.60564L8.63556 5.73111ZM11.6467 5.85778L10.7273 6.62904L10.7282 6.63005L11.6467 5.85778ZM11.8333 8.19333L10.845 7.51267L10.8431 7.51545L11.8333 8.19333ZM11.0222 9.10667L10.2108 8.22257L10.2089 8.22436L11.0222 9.10667ZM10.0033 20L10.004 18.8H10.0033V20ZM6.10333 19.2133L5.62788 20.3151L5.62869 20.3155L6.10333 19.2133ZM0.787778 6.10333L1.88946 6.57903L1.88981 6.57822L0.787778 6.10333ZM13.8967 0.787778L13.4215 1.88967L13.4218 1.88981L13.8967 0.787778ZM10 18.8889V17.6889V18.8889ZM10.0311 15.8111V17.0111C10.5847 17.0111 11.1006 16.8076 11.5019 16.4063L10.6533 15.5578L9.80481 14.7092C9.82589 14.6882 9.86442 14.6584 9.91861 14.6364C9.97211 14.6146 10.0142 14.6111 10.0311 14.6111V15.8111ZM10.6533 15.5578L11.5019 16.4063C11.9032 16.005 12.1067 15.4892 12.1067 14.9356H10.9067H9.70667C9.70667 14.9187 9.71014 14.8765 9.73192 14.8231C9.75398 14.7689 9.78372 14.7303 9.80481 14.7092L10.6533 15.5578ZM10.9067 14.9356H12.1067C12.1067 14.3786 11.8999 13.8616 11.4959 13.4611L10.6511 14.3133L9.8063 15.1656C9.78553 15.145 9.75534 15.1064 9.73275 15.0515C9.71042 14.9971 9.70667 14.9538 9.70667 14.9356H10.9067ZM10.6511 14.3133L11.4996 13.4648C11.0984 13.0635 10.5825 12.86 10.0289 12.86V14.06V15.26C10.012 15.26 9.96988 15.2565 9.91639 15.2347C9.86219 15.2127 9.82367 15.1829 9.80258 15.1619L10.6511 14.3133ZM10.0289 14.06V12.86C9.47359 12.86 8.95718 13.0651 8.55628 13.4678L9.40667 14.3144L10.257 15.1611C10.2362 15.182 10.1977 15.212 10.1431 15.2343C10.0892 15.2564 10.0464 15.26 10.0289 15.26V14.06ZM9.40667 14.3144L8.55628 13.4678C8.15655 13.8693 7.95277 14.3852 7.95445 14.9403L9.15445 14.9367L10.3544 14.933C10.3545 14.9512 10.3509 14.9942 10.3291 15.048C10.307 15.1025 10.2774 15.1407 10.257 15.1611L9.40667 14.3144ZM9.15445 14.9367H7.95445C7.95445 15.4903 8.15796 16.0061 8.55925 16.4074L9.40778 15.5589L10.2563 14.7104C10.2774 14.7314 10.3071 14.77 10.3292 14.8242C10.351 14.8777 10.3544 14.9198 10.3544 14.9367H9.15445ZM9.40778 15.5589L8.56296 16.4111C8.96355 16.8082 9.47729 17.0122 10.0311 17.0122V15.8122V14.6122C10.0489 14.6122 10.0907 14.6159 10.1432 14.6372C10.1962 14.6587 10.2331 14.6874 10.2526 14.7067L9.40778 15.5589ZM9.45667 12.1322V13.3322H10.53V12.1322V10.9322H9.45667V12.1322ZM10.53 12.1322L11.728 12.202C11.7503 11.8187 11.8185 11.6036 11.8724 11.4974L10.8022 10.9544L9.73208 10.4115C9.47928 10.9098 9.36599 11.4798 9.33203 12.0624L10.53 12.1322ZM10.8022 10.9544L11.8718 11.4984C11.9335 11.3772 12.1324 11.1034 12.589 10.6547L11.7478 9.79889L10.9066 8.94308C10.4091 9.43211 9.97761 9.92874 9.73262 10.4104L10.8022 10.9544ZM11.7478 9.79889L12.5957 10.6481C13.1278 10.1167 13.5674 9.59801 13.8766 9.09537L12.8544 8.46667L11.8323 7.83796C11.6585 8.1205 11.3603 8.48996 10.8999 8.94973L11.7478 9.79889ZM12.8544 8.46667L13.8766 9.09537C14.2474 8.49246 14.4168 7.81614 14.4178 7.10617L13.2178 7.10444L12.0178 7.10272C12.0173 7.42386 11.9444 7.65568 11.8323 7.83796L12.8544 8.46667ZM13.2178 7.10444H14.4178C14.4178 5.91076 13.9805 4.86453 13.0705 4.09488L12.2956 5.01111L11.5206 5.92734C11.8403 6.19769 12.0178 6.54701 12.0178 7.10444H13.2178ZM12.2956 5.01111L13.0699 4.09442C12.2278 3.38303 11.222 3.03111 10.1111 3.03111V4.23111V5.43111C10.6817 5.43111 11.1322 5.59919 11.5212 5.9278L12.2956 5.01111ZM10.1111 4.23111V3.03111C9.08163 3.03111 8.1343 3.31595 7.33857 3.9352L8.07556 4.88222L8.81255 5.82924C9.13237 5.58035 9.54207 5.43111 10.1111 5.43111V4.23111ZM8.07556 4.88222L7.33778 3.93581C6.64996 4.472 6.10983 5.11747 5.75978 5.87858L6.85 6.38L7.94022 6.88141C8.10869 6.51512 8.3856 6.16207 8.81333 5.82863L8.07556 4.88222ZM6.85 6.38L6.39086 7.48869L7.41308 7.91202L7.87222 6.80333L8.33136 5.69465L7.30914 5.27131L6.85 6.38ZM7.87222 6.80333L8.97078 7.28622C9.08158 7.03414 9.23999 6.8093 9.45622 6.60662L8.63556 5.73111L7.81489 4.8556C7.3689 5.27366 7.01842 5.76363 6.77367 6.32045L7.87222 6.80333ZM8.63556 5.73111L9.45726 6.60564C9.49383 6.57128 9.63406 6.46444 10.0689 6.46444V5.26444V4.06444C9.25484 4.06444 8.4395 4.26872 7.81385 4.85658L8.63556 5.73111ZM10.0689 5.26444V6.46444C10.5805 6.46444 10.7033 6.60035 10.7273 6.62904L11.6467 5.85778L12.566 5.08651C11.9264 4.3241 10.9973 4.06444 10.0689 4.06444V5.26444ZM11.6467 5.85778L10.7282 6.63005C10.8966 6.83028 10.9456 6.99688 10.9456 7.16222H12.1456H13.3456C13.3456 6.37942 13.062 5.67639 12.5651 5.0855L11.6467 5.85778ZM12.1456 7.16222H10.9456C10.9456 7.31709 10.9082 7.42093 10.845 7.51268L11.8333 8.19333L12.8216 8.87399C13.1747 8.36129 13.3456 7.77772 13.3456 7.16222H12.1456ZM11.8333 8.19333L10.8431 7.51545C10.6976 7.7281 10.4918 7.96472 10.2108 8.22257L11.0222 9.10667L11.8336 9.99076C12.2193 9.63676 12.5543 9.26449 12.8235 8.87121L11.8333 8.19333ZM11.0222 9.10667L10.2089 8.22436C9.53571 8.84491 8.97642 9.47292 8.67537 10.0951L9.75556 10.6178L10.8357 11.1405C10.9347 10.936 11.2198 10.5566 11.8356 9.98897L11.0222 9.10667ZM9.75556 10.6178L8.67537 10.0951C8.37634 10.7131 8.25577 11.4081 8.25667 12.1337L9.45667 12.1322L10.6567 12.1307C10.6561 11.6638 10.7348 11.3491 10.8357 11.1405L9.75556 10.6178ZM10.0033 20V18.8C8.77726 18.8 7.63948 18.5683 6.57798 18.1112L6.10333 19.2133L5.62869 20.3155C7.00275 20.9072 8.46496 21.2 10.0033 21.2V20ZM6.10333 19.2133L6.57879 18.1115C5.49504 17.6439 4.56404 17.0152 3.77485 16.2267L2.92667 17.0756L2.07849 17.9244C3.09077 18.9359 4.27755 19.7324 5.62788 20.3151L6.10333 19.2133ZM2.92667 17.0756L3.77485 16.2267C2.98565 15.4381 2.35684 14.5083 1.88936 13.4263L0.787778 13.9022L-0.313802 14.3782C0.269085 15.7273 1.0662 16.913 2.07849 17.9244L2.92667 17.0756ZM0.787778 13.9022L1.88936 13.4263C1.43201 12.3677 1.2 11.2308 1.2 10.0033H0H-1.2C-1.2 11.5432 -0.906828 13.0056 -0.313802 14.3782L0.787778 13.9022ZM0 10.0033H1.2C1.2 8.77582 1.43201 7.63846 1.88946 6.57903L0.787778 6.10333L-0.313908 5.62764C-0.906828 7.0008 -1.2 8.46344 -1.2 10.0033H0ZM0.787778 6.10333L1.88981 6.57822C2.35689 5.49431 2.98461 4.56328 3.7718 3.77415L2.92222 2.92667L2.07265 2.07919C1.0628 3.09153 0.267554 4.27828 -0.314257 5.62845L0.787778 6.10333ZM2.92222 2.92667L3.7718 3.77415C4.55826 2.98574 5.48787 2.35717 6.57188 1.88967L6.09667 0.787778L5.62146 -0.314119C4.26991 0.268758 3.08322 1.06611 2.07265 2.07919L2.92222 2.92667ZM6.09667 0.787778L6.57188 1.88967C7.63324 1.43194 8.77083 1.2 9.99667 1.2V0V-1.2C8.45806 -1.2 6.99565 -0.906758 5.62146 -0.314119L6.09667 0.787778ZM9.99667 0V1.2C11.2225 1.2 12.3601 1.43194 13.4215 1.88967L13.8967 0.787778L14.3719 -0.314119C12.9977 -0.906758 11.5353 -1.2 9.99667 -1.2V0ZM13.8967 0.787778L13.4218 1.88981C14.5055 2.3568 15.4364 2.98476 16.2255 3.77256L17.0733 2.92333L17.9212 2.07411C16.9088 1.06339 15.7219 0.267642 14.3716 -0.314257L13.8967 0.787778ZM17.0733 2.92333L16.2255 3.77256C17.0142 4.56 17.6429 5.48987 18.1104 6.57323L19.2122 6.09778L20.314 5.62232C19.7311 4.27162 18.9339 3.08518 17.9212 2.07411L17.0733 2.92333ZM19.2122 6.09778L18.1104 6.57323C18.5681 7.63371 18.8 8.77082 18.8 9.99667H20H21.2C21.2 8.45807 20.9068 6.99592 20.314 5.62232L19.2122 6.09778ZM20 9.99667H18.8C18.8 11.2227 18.5683 12.3605 18.1112 13.422L19.2133 13.8967L20.3155 14.3713C20.9072 12.9973 21.2 11.535 21.2 9.99667H20ZM19.2133 13.8967L18.1112 13.422C17.6444 14.506 17.0161 15.4364 16.2274 16.2245L17.0756 17.0733L17.9237 17.9222C18.9365 16.9103 19.7334 15.7229 20.3155 14.3713L19.2133 13.8967ZM17.0756 17.0733L16.2274 16.2245C15.4377 17.0135 14.5073 17.6426 13.4255 18.111L13.9022 19.2122L14.379 20.3135C15.7268 19.7299 16.9119 18.9332 17.9237 17.9222L17.0756 17.0733ZM13.9022 19.2122L13.4255 18.111C12.3682 18.5687 11.2319 18.8007 10.004 18.8L10.0033 20L10.0027 21.2C11.5437 21.2008 13.0066 20.9076 14.379 20.3135L13.9022 19.2122ZM10 18.8889V20.0889C12.793 20.0889 15.2021 19.1061 17.1541 17.1541L16.3056 16.3056L15.457 15.457C13.9646 16.9495 12.1699 17.6889 10 17.6889V18.8889ZM16.3056 16.3056L17.1541 17.1541C19.1061 15.2021 20.0889 12.793 20.0889 10H18.8889H17.6889C17.6889 12.1699 16.9495 13.9646 15.457 15.457L16.3056 16.3056ZM18.8889 10H20.0889C20.0889 7.20698 19.1061 4.79789 17.1541 2.84592L16.3056 3.69444L15.457 4.54297C16.9495 6.03544 17.6889 7.83005 17.6889 10H18.8889ZM16.3056 3.69444L17.1541 2.84592C15.2021 0.893938 12.793 -0.088889 10 -0.088889V1.11111V2.31111C12.1699 2.31111 13.9646 3.05051 15.457 4.54297L16.3056 3.69444ZM10 1.11111V-0.088889C7.20698 -0.088889 4.79789 0.893938 2.84592 2.84592L3.69444 3.69444L4.54297 4.54297C6.03544 3.05051 7.83005 2.31111 10 2.31111V1.11111ZM3.69444 3.69444L2.84592 2.84592C0.893938 4.79789 -0.0888889 7.20698 -0.0888889 10H1.11111H2.31111C2.31111 7.83005 3.05051 6.03544 4.54297 4.54297L3.69444 3.69444ZM1.11111 10H-0.0888889C-0.0888889 12.793 0.893938 15.2021 2.84592 17.1541L3.69444 16.3056L4.54297 15.457C3.05051 13.9646 2.31111 12.1699 2.31111 10H1.11111ZM3.69444 16.3056L2.84592 17.1541C4.79789 19.1061 7.20698 20.0889 10 20.0889V18.8889V17.6889C7.83005 17.6889 6.03544 16.9495 4.54297 15.457L3.69444 16.3056Z" fill="#FDFDFD" mask="url(#path-1-inside-1_1068_1906)"/>
</svg>