<svg xmlns="http://www.w3.org/2000/svg" width="20" height="22" viewBox="0 0 20 22" fill="none">
  <path d="M6.49482 21C6.05797 21 5.68979 20.8525 5.39027 20.5575C5.09075 20.2625 4.94134 19.9002 4.94203 19.4706C4.94272 19.0411 5.09213 18.6784 5.39027 18.3827C5.68979 18.0884 6.05797 17.9413 6.49482 17.9413C6.93168 17.9413 7.29952 18.0884 7.59834 18.3827C7.89717 18.6771 8.04693 19.0397 8.04762 19.4706C8.04831 19.9016 7.89855 20.2639 7.59834 20.5575C7.29814 20.8511 6.9303 20.9986 6.49482 21ZM16.2091 21C15.7729 21 15.4051 20.8525 15.1056 20.5575C14.8061 20.2625 14.6563 19.9002 14.6563 19.4706C14.6563 19.0411 14.8061 18.6784 15.1056 18.3827C15.4051 18.0884 15.7729 17.9413 16.2091 17.9413C16.6453 17.9413 17.0135 18.0884 17.3137 18.3827C17.6125 18.6777 17.7619 19.0404 17.7619 19.4706C17.7619 19.9002 17.6125 20.2625 17.3137 20.5575C17.0141 20.8525 16.646 21 16.2091 21ZM1.5 3.03915C1.22386 3.03915 1 2.81529 1 2.53915V2.51958C1 2.24343 1.22386 2.01958 1.5 2.01958H3.2203C3.4122 2.01958 3.58717 2.12941 3.67059 2.30223L7.6379 10.5216C7.72131 10.6944 7.89628 10.8042 8.08819 10.8042H14.7285C14.909 10.8042 15.0755 10.7069 15.1641 10.5496L18.6765 4.31336C18.7651 4.15605 18.9316 4.05873 19.1121 4.05873H19.1445C19.5271 4.05873 19.7679 4.4708 19.5802 4.80411L15.7697 11.5692C15.6811 11.7265 15.5146 11.8238 15.3341 11.8238H7.60912C7.42742 11.8238 7.26002 11.9224 7.17188 12.0813L6.0299 14.14C5.84504 14.4733 6.08604 14.8825 6.46714 14.8825H17.2619C17.538 14.8825 17.7619 15.1064 17.7619 15.3825V15.4021C17.7619 15.6783 17.538 15.9021 17.2619 15.9021H4.69693C4.3135 15.9021 4.07276 15.4883 4.26228 15.155L6.54819 11.1346C6.6295 10.9916 6.63527 10.8178 6.56362 10.6697L3.00819 3.32138C2.92468 3.14879 2.74984 3.03915 2.55811 3.03915H1.5ZM11.3344 6.09788C11.0582 6.09788 10.8344 5.87402 10.8344 5.59788V1.5C10.8344 1.22386 11.0582 1 11.3344 1H11.3696C11.6457 1 11.8696 1.22386 11.8696 1.5V5.59788C11.8696 5.87402 11.6457 6.09788 11.3696 6.09788H11.3344ZM11.2153 9.15661C10.9392 9.15661 10.7153 8.93275 10.7153 8.65661V8.40253C10.7153 8.12639 10.9392 7.90253 11.2153 7.90253H11.4886C11.7648 7.90253 11.9886 8.12639 11.9886 8.40253V8.65661C11.9886 8.93275 11.7648 9.15661 11.4886 9.15661H11.2153Z" fill="#FDFDFD" stroke="#FDFDFD" stroke-width="0.1"/>
</svg>