<svg xmlns="http://www.w3.org/2000/svg" width="20" height="20" viewBox="0 0 20 20" fill="none">
  <path d="M9.52344 0.5V0.75H2.01953C1.67173 0.750135 1.37412 0.90057 1.1377 1.13574C0.900366 1.37184 0.749253 1.67038 0.75 2.01953V17.9814C0.750056 18.3291 0.900998 18.6263 1.13574 18.8623C1.37141 19.0992 1.66952 19.2499 2.01855 19.249V19.25H9.52344V19.5H2.01953C1.56823 19.4999 1.21785 19.3544 0.932617 19.0693C0.682869 18.8196 0.539172 18.5191 0.506836 18.1445L0.5 17.9795V2.01953C0.500101 1.56844 0.645717 1.21797 0.931641 0.932617C1.18257 0.682233 1.48314 0.539081 1.85645 0.506836L2.02051 0.5H9.52344ZM19.293 10L15.582 13.7119L15.4023 13.5273L17.2695 11.6611C17.8363 11.0941 17.4345 10.125 16.6328 10.125H6.99023V9.875H16.6328C17.4345 9.875 17.8363 8.90586 17.2695 8.33887L15.4014 6.4707L15.5801 6.28809L19.293 10Z" fill="#FDFDFD" stroke="#FDFDFD"/>
</svg>