<svg xmlns="http://www.w3.org/2000/svg" width="21" height="24" viewBox="0 0 21 24" fill="none">
  <path d="M8.16667 21.7143H12.8333C12.8333 22.9714 11.7833 24 10.5 24C9.21667 24 8.16667 22.9714 8.16667 21.7143ZM21 19.4286V20.5714H0V19.4286L2.33333 17.1429V10.2857C2.33333 6.74286 4.66667 3.65714 8.16667 2.62857V2.28571C8.16667 1.02857 9.21667 0 10.5 0C11.7833 0 12.8333 1.02857 12.8333 2.28571V2.62857C16.3333 3.65714 18.6667 6.74286 18.6667 10.2857V17.1429L21 19.4286ZM16.3333 10.2857C16.3333 7.08571 13.7667 4.57143 10.5 4.57143C7.23333 4.57143 4.66667 7.08571 4.66667 10.2857V18.2857H16.3333V10.2857Z" fill="#FDFDFD"/>
</svg>