<svg xmlns="http://www.w3.org/2000/svg" width="14" height="18" viewBox="0 0 14 18" fill="none">
  <path d="M7 6.75C8.65685 6.75 10 5.40685 10 3.75C10 2.09315 8.65685 0.75 7 0.75C5.34315 0.75 4 2.09315 4 3.75C4 5.40685 5.34315 6.75 7 6.75Z" stroke="#FDFDFD" stroke-width="1.2"/>
  <path d="M1 14.9167C1 13.679 1.31607 12.492 1.87868 11.6168C2.44129 10.7417 3.20435 10.25 4 10.25H10C10.7956 10.25 11.5587 10.7417 12.1213 11.6168C12.6839 12.492 13 13.679 13 14.9167C13 15.5355 12.842 16.129 12.5607 16.5666C12.2794 17.0042 11.8978 17.25 11.5 17.25H2.5C2.10218 17.25 1.72064 17.0042 1.43934 16.5666C1.15804 16.129 1 15.5355 1 14.9167Z" stroke="#FDFDFD" stroke-width="1.2" stroke-linejoin="round"/>
</svg>