<svg xmlns="http://www.w3.org/2000/svg" width="20" height="20" viewBox="0 0 20 20" fill="none">
  <path d="M1.17647 15.9375V18.3125V1.6875V15.9375ZM1.90118 19.5C1.37412 19.5 0.92549 19.3132 0.555294 18.9395C0.185098 18.5658 0 18.1134 0 17.5822V2.41781C0 1.8874 0.185098 1.43496 0.555294 1.0605C0.92549 0.686834 1.37412 0.5 1.90118 0.5H16.9235C17.449 0.5 17.8973 0.686834 18.2682 1.0605C18.6384 1.43417 18.8235 1.887 18.8235 2.419V5.91262H17.6471V2.419C17.6471 2.20525 17.5792 2.0299 17.4435 1.89294C17.3078 1.75598 17.1345 1.6875 16.9235 1.6875H1.9C1.68902 1.6875 1.51569 1.75598 1.38 1.89294C1.24431 2.0299 1.17647 2.20525 1.17647 2.419V17.5822C1.17647 17.7951 1.24431 17.9701 1.38 18.1071C1.51569 18.244 1.68941 18.3125 1.90118 18.3125H16.9235C17.1345 18.3125 17.3078 18.244 17.4435 18.1071C17.5792 17.9701 17.6471 17.7951 17.6471 17.5822V14.0874H18.8235V17.5822C18.8235 18.1126 18.6384 18.565 18.2682 18.9395C17.898 19.3132 17.4498 19.5 16.9235 19.5H1.90118ZM11.3129 14.75C10.7859 14.75 10.3373 14.5632 9.96706 14.1895C9.59686 13.8158 9.41177 13.3634 9.41177 12.8322V7.16781C9.41177 6.6374 9.59686 6.18496 9.96706 5.8105C10.3373 5.43683 10.7859 5.25 11.3129 5.25H18.1C18.6255 5.25 19.0737 5.43683 19.4447 5.8105C19.8149 6.18417 20 6.637 20 7.169V12.8322C20 13.3626 19.8149 13.815 19.4447 14.1895C19.0745 14.5632 18.6263 14.75 18.1 14.75H11.3129ZM18.1 13.5625C18.311 13.5625 18.4843 13.494 18.62 13.3571C18.7557 13.2201 18.8235 13.0451 18.8235 12.8322V7.16781C18.8235 6.95485 18.7557 6.7799 18.62 6.64294C18.4843 6.50598 18.311 6.4375 18.1 6.4375H11.3118C11.1008 6.4375 10.9275 6.50598 10.7918 6.64294C10.6561 6.7799 10.5882 6.95525 10.5882 7.169V12.8322C10.5882 13.0451 10.6561 13.2201 10.7918 13.3571C10.9275 13.494 11.1012 13.5625 11.3129 13.5625H18.1ZM14.1176 11.7812C14.6078 11.7812 15.0247 11.6083 15.3682 11.2623C15.7118 10.9164 15.8831 10.4956 15.8824 10C15.8816 9.50442 15.7102 9.08404 15.3682 8.73887C15.0263 8.39371 14.6094 8.22033 14.1176 8.21875C13.6259 8.21717 13.2094 8.39054 12.8682 8.73887C12.5271 9.08721 12.3553 9.50758 12.3529 10C12.3506 10.4924 12.5224 10.9132 12.8682 11.2623C13.2141 11.6114 13.6306 11.7844 14.1176 11.7812Z" fill="#FDFDFD"/>
</svg>